<svg viewBox="0 0 70 62" fill="none" xmlns="http://www.w3.org/2000/svg">
<path d="M31.2157 61.0464C30.4357 60.8767 29.6896 60.724 28.9436 60.5713C28.6214 60.5035 28.2993 60.4186 27.9601 60.3677C27.7397 60.3338 27.6719 60.232 27.638 60.0284C27.5363 59.3497 27.4006 58.688 27.2819 58.0093C27.0784 56.7877 26.858 55.5661 26.6546 54.3445C26.5528 53.7677 26.468 53.1738 26.3663 52.597C26.3324 52.3424 26.2646 52.0879 26.2646 51.8334C26.2646 51.7147 26.2985 51.562 26.3663 51.4602C27.2989 49.9501 28.2484 48.4401 29.181 46.9301C29.2488 46.8283 29.2657 46.6756 29.2657 46.5568C29.181 45.5897 29.0623 44.6226 28.9775 43.6555C28.8418 42.1794 28.7062 40.6863 28.5875 39.2102C28.4688 37.8359 28.384 36.4446 28.2823 35.0703C28.1975 33.8657 28.1128 32.644 28.011 31.4394C28.011 31.4224 28.011 31.4055 28.011 31.3715C27.9771 30.9304 27.9771 30.9304 27.5363 30.9813C26.7563 31.0661 25.9594 31.151 25.1794 31.2358C24.8233 31.2697 24.4842 31.3206 24.1281 31.3546C23.9925 31.3715 23.9416 31.4394 23.8738 31.5582C22.6021 33.8487 21.3135 36.1562 20.0248 38.4467C19.2957 39.7531 19.7121 39.1766 19 40.5C18.9491 40.6018 17.7527 42.6035 17.6849 42.7223C14.2429 42.0097 10.8009 41.2801 7.291 40.5506C7.39274 40.4997 7.44361 40.4827 7.49447 40.4657C9.25788 39.838 11.0213 39.2271 12.7847 38.5994C12.9542 38.5485 13.1238 38.4806 13.2764 38.3958C13.4121 38.3109 13.5647 38.2091 13.6325 38.0734C15.752 34.6461 16.3975 33.9443 18.5 30.5C19.3145 29.1658 21 28.5 23 28.5C26 29 25.6372 28.9623 28.2993 29.624C28.4858 29.6749 28.5875 29.607 28.7232 29.5222C29.8253 28.8605 30.9444 28.2157 32.0465 27.554C34.0812 26.3494 36.1159 25.1617 38.1336 23.9571C38.2015 23.9231 38.2693 23.8722 38.3202 23.7704C38.2693 23.7704 38.2184 23.7704 38.1506 23.7704C36.2685 23.8892 34.3694 24.008 32.4874 24.1267C31.2326 24.2116 29.9779 24.3134 28.7401 24.3473C28.0958 24.3643 27.4345 24.2794 26.7732 24.2116C26.1798 24.1437 25.6033 24.0419 25.0098 23.9401C24.8911 23.9231 24.7725 23.8722 24.6877 23.8044C23.1447 22.3113 21.6017 20.8352 20.0587 19.3421C20.0418 19.3251 20.0418 19.3251 20.0248 19.2742C25.5185 20.1226 30.9952 20.9539 36.5059 21.8023C36.5398 21.5817 36.5737 21.3781 36.6076 21.1575C36.1329 21.0897 35.675 21.0048 35.2172 20.937C34.3694 20.8012 33.5386 20.6825 32.6908 20.5467C31.843 20.411 31.0122 20.2922 30.1644 20.1565C29.3166 20.0208 28.4858 19.902 27.638 19.7663C26.7902 19.6305 25.9594 19.5118 25.1116 19.376C24.2638 19.2403 23.4329 19.1215 22.5852 18.9858C21.7374 18.8501 20.9065 18.7313 20.0587 18.5956C19.7705 18.5447 19.4992 18.5107 19.2109 18.4768C19.1601 18.4598 19.0923 18.4259 19.0583 18.392C17.8036 17.1873 16.5658 15.9827 15.3111 14.778C15.2942 14.7611 15.2941 14.7441 15.2602 14.6932C21.6695 15.6773 28.028 16.6444 34.4373 17.6285C34.4712 17.4079 34.5051 17.2043 34.539 16.9837C33.9795 16.8989 33.4369 16.8141 32.8773 16.7292C32.0295 16.5935 31.1987 16.4747 30.3509 16.339C29.5031 16.2033 28.6723 16.0845 27.8245 15.9488C26.9767 15.813 26.1459 15.6943 25.2981 15.5585C24.4503 15.4228 23.6025 15.304 22.7547 15.1683C21.9069 15.0325 21.0761 14.9138 20.2283 14.778C19.3805 14.6423 18.5497 14.5235 17.7019 14.3878C16.8541 14.2521 16.0233 14.1333 15.1755 13.9976C14.9889 13.9636 14.7855 13.9127 14.599 13.9127C14.4294 13.9127 14.3107 13.8109 14.192 13.7091C12.9712 12.5215 11.7334 11.3338 10.5126 10.1461C10.4617 10.0952 10.4109 10.0443 10.3091 9.94252C17.4475 11.0454 24.5351 12.1312 31.6226 13.2171C31.6565 12.9965 31.6904 12.7929 31.7243 12.5724C31.1648 12.4875 30.6222 12.4027 30.0796 12.3179C29.2318 12.1821 28.401 12.0634 27.5532 11.9276C26.7054 11.7919 25.8746 11.6731 25.0268 11.5374C24.179 11.4017 23.3312 11.2829 22.4834 11.1472C21.6526 11.0114 20.8217 10.8927 19.9909 10.7569C19.1431 10.6212 18.3123 10.5024 17.4645 10.3667C16.6167 10.231 15.7859 10.1122 14.9381 9.97645C14.0903 9.84072 13.2595 9.72195 12.4117 9.58622C11.5639 9.45048 10.6991 9.31475 9.85133 9.19598C9.61395 9.16205 9.41048 9.09418 9.22396 8.90755C7.88445 7.60111 6.54495 6.29467 5.18848 5.00519C5.13761 4.97126 5.08675 4.93733 5.03588 4.90339C5.05284 4.88643 5.05284 4.85249 5.06979 4.83553C13.1408 6.0741 21.2117 7.31267 29.3166 8.55125C29.3505 8.33068 29.3844 8.12708 29.4183 7.90651C28.8588 7.82168 28.3162 7.73684 27.7567 7.65201C26.9089 7.51627 26.0781 7.39751 25.2303 7.26177C24.3825 7.12604 23.5516 7.00727 22.7038 6.87154C21.8561 6.7358 21.0252 6.61704 20.1774 6.4813C19.3296 6.34557 18.4818 6.2268 17.6341 6.09107C16.7863 5.95533 15.9554 5.83656 15.1076 5.70083C14.2598 5.5651 13.429 5.44633 12.5812 5.31059C11.7334 5.17486 10.9026 5.05609 10.0548 4.92036C9.20701 4.78462 8.37617 4.66586 7.52838 4.53013C6.68059 4.39439 5.84976 4.27562 5.00197 4.13989C4.7985 4.10596 4.59503 4.05506 4.40851 4.05506C4.20504 4.03809 4.0694 3.95325 3.93375 3.81752C2.67902 2.59591 1.42429 1.39127 0.169558 0.186634C0.118691 0.135734 0.0678233 0.118768 0 0.0678673C0.0169558 0.0509005 0.0339137 0.0339335 0.0339137 0C0.305207 0.0339335 0.593455 0.0678668 0.864748 0.1018C2.96727 0.356302 5.05284 0.610803 7.15536 0.865304C8.98659 1.08587 10.8178 1.32341 12.6321 1.54397C14.4633 1.76454 16.2945 1.98511 18.1088 2.20568C19.94 2.42625 21.7713 2.66378 23.5855 2.88435C25.2981 3.08795 27.0276 3.29155 28.7401 3.51212C30.6731 3.74965 32.606 3.98719 34.539 4.22472C35.0307 4.29259 35.5224 4.32652 36.0142 4.41136C36.1159 4.42832 36.2346 4.49619 36.2855 4.58102C37.4554 6.8885 38.6254 9.19598 39.7953 11.5035C40.8974 13.6752 42.0165 15.83 43.1356 17.9848C43.3052 18.3071 43.5086 18.6295 43.6273 18.9688C43.9834 19.9529 44.5769 20.8352 45.0347 21.7683C45.0686 21.8362 45.1025 21.8871 45.1364 21.955C45.6112 21.7514 46.069 21.5478 46.5607 21.3442C46.4759 20.7673 46.3911 20.1904 46.3063 19.6136C46.035 17.7812 45.7468 15.9488 45.4755 14.1163C45.2042 12.2839 44.916 10.4515 44.6447 8.61911C44.6277 8.48338 44.5599 8.36461 44.5599 8.22888C44.5599 8.16101 44.6108 8.07618 44.6616 8.02528C45.3907 7.143 46.1368 6.26073 46.8659 5.39543C46.9507 5.29363 47.0524 5.20879 47.1372 5.10699C47.1711 5.07306 47.1711 4.98823 47.1711 4.92036C46.9168 3.90235 46.6624 2.90132 46.3911 1.88331C46.3742 1.81544 46.3742 1.74758 46.3572 1.66274C46.7811 1.83241 47.1711 2.00208 47.5611 2.15478C49.3753 2.85042 51.054 3.81752 52.8174 4.66586C54.5638 5.5142 56.1407 6.61703 57.7515 7.68594C59.7184 8.97541 61.6853 10.2819 63.6691 11.5713C63.72 11.6053 63.7878 11.6392 63.8387 11.6901C63.9404 11.758 63.9574 11.8258 63.8895 11.9446C63.2113 12.9796 62.5161 14.0315 61.8379 15.0834C61.7701 15.1852 61.7022 15.2192 61.5835 15.1852C59.9388 14.8459 58.3111 14.5235 56.6663 14.1672C56.1068 14.0485 55.5473 13.8958 54.9538 13.76C54.9877 13.8279 54.9877 13.8618 55.0216 13.8958C56.9885 16.7123 58.6502 19.7323 60.4475 22.6506C60.6679 22.99 60.9392 23.3293 61.041 23.7026C61.1427 24.0758 61.0749 24.517 61.0749 24.9242C61.0749 26.5699 61.0749 28.2157 61.0749 29.8445C61.0749 30.0142 61.1257 30.1499 61.2444 30.2857C63.5504 32.8646 65.8734 35.4436 68.1794 38.0395C68.2133 38.0734 68.2472 38.1073 68.2811 38.1582C65.7716 41.2123 63.2452 44.2493 60.7188 47.3033C60.6849 47.2355 60.6679 47.1846 60.651 47.1337C60.4644 46.5229 60.2779 45.9121 60.0745 45.3182C60.0236 45.1485 60.0406 45.0298 60.1423 44.8771C61.6683 42.6544 63.1774 40.4318 64.7034 38.2091C64.7373 38.1413 64.7882 38.0904 64.8391 38.0055C64.6017 37.9207 64.3812 37.8359 64.1608 37.751C61.6174 36.767 59.0571 35.7829 56.5138 34.7988C56.3951 34.7479 56.3103 34.7479 56.1746 34.8158C53.75 36.1562 51.3422 37.4965 48.9006 38.803C48.6462 38.9387 48.3241 38.9557 48.0189 39.0235C45.2551 39.5495 42.4743 40.0924 39.6936 40.6184C39.524 40.6524 39.4223 40.7372 39.3205 40.8729C37.3537 43.6215 35.3698 46.3702 33.403 49.1188C32.2839 50.6627 31.1818 52.2067 30.0627 53.7677C29.9948 53.8695 29.9609 53.9713 29.9779 54.107C30.0796 54.9553 30.1644 55.7867 30.2831 56.635C30.3848 57.3307 30.5035 58.0433 30.6222 58.7389C30.7239 59.3497 30.8087 59.9605 30.8935 60.5713C30.8935 60.6222 30.8426 60.758 30.9952 60.7071C31.2157 60.8937 31.2157 60.9446 31.2157 61.0464Z" fill="#FF7420"/>
<path d="M44.3401 41.0935C44.2892 41.1783 44.2383 41.2462 44.2044 41.331C44.0688 41.7382 43.9162 42.1285 43.7805 42.5357C43.1362 44.419 42.4919 46.2853 41.8476 48.1517C41.7797 48.3553 41.7797 48.508 41.8815 48.7116C43.0514 51.2057 44.2044 53.6998 45.3744 56.177C45.8152 57.1271 46.2561 58.0603 46.6969 59.0104C46.7478 59.1122 46.8326 59.214 46.9174 59.3497C46.3069 59.2819 45.7474 59.214 45.1879 59.1461C44.4249 59.0613 43.6618 58.9765 42.8819 58.8747C42.7971 58.8577 42.6784 58.7898 42.6275 58.722C42.2715 58.0603 41.9323 57.3986 41.6102 56.7199C41.1524 55.8207 40.6946 54.9384 40.2707 54.0391C39.6603 52.7836 39.1177 51.4941 38.6599 50.1877C38.4734 49.6448 38.3716 49.1188 38.3886 48.5419C38.4225 46.981 38.4225 45.4031 38.4394 43.8421C38.4394 43.7743 38.5073 43.6894 38.5751 43.6555C40.152 42.9259 41.7458 42.2133 43.3227 41.5007C43.6449 41.348 43.984 41.1953 44.3231 41.0596C44.3062 41.0765 44.3231 41.0765 44.3401 41.0935Z" fill="#FF7420"/>
<path d="M69.7216 22.447C69.5351 26.9602 69.3486 31.4224 69.1621 35.9526C69.0095 35.8168 68.8908 35.715 68.7721 35.6132C68.2973 35.1721 67.8056 34.714 67.3308 34.2559C67.263 34.188 67.1952 34.0693 67.1782 33.9675C67.0087 32.7798 66.8391 31.6091 66.6695 30.4214C66.5678 29.6918 66.4661 28.9792 66.3643 28.2497C66.3474 28.08 66.3135 27.9103 66.2965 27.7067C64.957 28.4533 63.6684 29.1659 62.3458 29.8954C62.3289 29.7936 62.3289 29.7427 62.3289 29.6918C62.3797 28.0461 62.4136 26.4003 62.4645 24.7545C62.4815 24.4152 62.4815 24.3982 62.8036 24.2964C63.6684 24.0589 64.5162 23.8213 65.3809 23.5838C66.1439 23.3802 66.9069 23.1596 67.6699 22.956C68.2464 22.8033 68.806 22.6676 69.3825 22.5149C69.4842 22.5149 69.5859 22.4979 69.7216 22.447Z" fill="#FF7420"/>
</svg>
